# xmcd
#
# Track frame offsets:
#	150
#	9999
#	24258
#	33628
#	47606
#	66338
#	82839
#	96234
#	107809
#	118128
#	130356
#	143046
#
# Disc length: 2089 seconds
#
# Revision: 1
# Processed by: cddbd v1.5.2PL0 Copyright (c) Steve Scherf et al.
# Submitted via: audiograbber 1.83.01
#
DISCID=9b08270c
DTITLE=Willie Nelson - Crazy [CD5/5)
DYEAR=2008
DGENRE=Country
TTITLE0=Crazy
TTITLE1=Heartbreak Hotel
TTITLE2=White Lightening
TTITLE3=My Cricket And Me
TTITLE4=Will The Circle Be Unbroken
TTITLE5=Wabash Canonball
TTITLE6=Rolling In My Baby's Arms
TTITLE7=One For My Baby And One For The Road
TTITLE8=Always
TTITLE9=I Can't Find The Time
TTITLE10=Any Old Arms Won't Do
TTITLE11=Final Jam
EXTD=CD 5 of a set of five CDs with different album-titles:\nAlways On My Mind 
EXTD=(CD1/5]\nTo All The Girls I've Loved Before [CD2/5]\nFace Of A Fighter [CD
EXTD=3/5]\nThe Last Letter [CD4/5]\nCrazy [CD5/5)
EXTT0=
EXTT1=
EXTT2=
EXTT3=
EXTT4=
EXTT5=
EXTT6=
EXTT7=
EXTT8=
EXTT9=
EXTT10=
EXTT11=
PLAYORDER=
